<?xml version="1.0" encoding="utf-8"?>
<svg fill="#c0c0c0" width="256px" height="256px" viewBox="0 0 24 24" stroke="#c0c0c0" xmlns="http://www.w3.org/2000/svg">
  <defs/>
  <g id="SVGRepo_bgCarrier" stroke-width="0"/>
  <g id="SVGRepo_tracerCarrier" stroke-linecap="round" stroke-linejoin="round"/>
  <g id="SVGRepo_iconCarrier" style="transform-origin: 12.0001px 11.9989px;" transform="matrix(-0.406738, -0.913546, 0.913546, -0.406738, 0.596605, 0.550667)">
    <path d="M7.936,11.97a1,1,0,1,0-1.415,1.414l.373.372L3.3,17.35a1.024,1.024,0,0,0,0,1.448l1.9,1.9a1.024,1.024,0,0,0,1.448,0l3.593-3.593.372.372a1,1,0,0,0,1.414-1.415Z"/>
    <polygon points="14.3 3 9.015 10.928 13.071 14.985 21 9.7 21 3 14.3 3"/>
  </g>
</svg>